<svg width="51" height="26" viewBox="0 0 51 26" fill="none" xmlns="http://www.w3.org/2000/svg">
<path d="M37.5644 0.699951C44.4394 0.778076 50.0644 6.32495 50.0644 13.2781C50.0644 20.1531 44.4394 25.7781 37.5644 25.7781C34.0487 25.7781 30.8456 24.2937 28.58 21.95H21.4706C19.205 24.2937 16.0019 25.7 12.5644 25.7C5.61125 25.7 0.0643711 20.1531 0.0643711 13.2C0.0643711 6.32495 5.61125 0.699951 12.5644 0.699951H37.5644ZM19.4394 14.1375V12.2625C19.4394 11.7937 18.9706 11.325 18.5019 11.325H14.4394V7.26245C14.4394 6.7937 13.9706 6.32495 13.5019 6.32495H11.6269C11.08 6.32495 10.6894 6.7937 10.6894 7.26245V11.325H6.62687C6.08 11.325 5.68937 11.7937 5.68937 12.2625V14.1375C5.68937 14.6843 6.08 15.075 6.62687 15.075H10.6894V19.1375C10.6894 19.6843 11.08 20.075 11.6269 20.075H13.5019C13.9706 20.075 14.4394 19.6843 14.4394 19.1375V15.075H18.5019C18.9706 15.075 19.4394 14.6843 19.4394 14.1375ZM36.3144 20.075C38.0331 20.075 39.4394 18.7468 39.4394 16.95C39.4394 15.2312 38.0331 13.825 36.3144 13.825C34.5175 13.825 33.1894 15.2312 33.1894 16.95C33.1894 18.7468 34.5175 20.075 36.3144 20.075ZM41.3144 12.575C43.0331 12.575 44.4394 11.2468 44.4394 9.44995C44.4394 7.7312 43.0331 6.32495 41.3144 6.32495C39.5175 6.32495 38.1894 7.7312 38.1894 9.44995C38.1894 11.2468 39.5175 12.575 41.3144 12.575Z" fill="#F0F0F0"/>
</svg>
