<svg width="42" height="41" viewBox="0 0 42 41" fill="none" xmlns="http://www.w3.org/2000/svg">
<path d="M18.4862 11.0845C15.205 11.6313 12.2362 13.1157 9.97062 15.3032L1.22062 2.88135C0.673746 2.02197 1.29875 0.850098 2.31437 0.850098H10.9862C11.8456 0.850098 12.705 1.39697 13.0956 2.1001L18.4862 11.0845ZM39.7362 0.850098C40.7519 0.850098 41.3769 2.02197 40.83 2.88135L32.08 15.3032C29.8144 13.1157 26.8456 11.6313 23.5644 11.0845L28.955 2.1001C29.4237 1.31885 30.205 0.850098 31.0644 0.850098H39.7362ZM21.0644 13.3501C28.6425 13.3501 34.8144 19.522 34.8144 27.1001C34.8144 34.7563 28.6425 40.8501 21.0644 40.8501C13.4081 40.8501 7.31437 34.7563 7.31437 27.1001C7.31437 19.522 13.4081 13.3501 21.0644 13.3501ZM28.2519 25.6938C28.7987 25.147 28.4862 24.2876 27.7831 24.1313L23.6425 23.5845L21.8456 19.8345C21.6894 19.522 21.3769 19.3657 20.9862 19.3657C20.6737 19.3657 20.3612 19.522 20.205 19.8345L18.4081 23.5845L14.2675 24.1313C13.5644 24.2876 13.2519 25.147 13.7987 25.6938L16.7675 28.5845L16.0644 32.647C15.9081 33.3501 16.6894 33.897 17.3925 33.5845L21.0644 31.6313L24.6581 33.5845C25.3612 33.897 26.1425 33.3501 25.9862 32.647L25.2831 28.5845L28.2519 25.6938Z" fill="#F0F0F0"/>
</svg>
