<svg width="154" height="151" viewBox="0 0 154 151" fill="none" xmlns="http://www.w3.org/2000/svg">
<path d="M38 75.75C58.5078 75.75 75.5 92.7422 75.5 113.25C75.5 134.051 58.5078 150.75 38 150.75C17.1992 150.75 0.5 134.051 0.5 113.25C0.5 92.7422 17.1992 75.75 38 75.75ZM149.035 59.9297C153.137 66.9609 147.863 75.75 139.367 75.75H76.9648C68.4688 75.75 63.1953 66.9609 67.5898 59.9297L98.6445 6.31641C100.695 3.09375 104.211 0.75 108.02 0.75C112.121 0.75 115.637 3.09375 117.688 6.31641L149.035 59.9297ZM141.125 85.125C146.105 85.125 150.5 89.5195 150.5 94.5V141.375C150.5 146.648 146.105 150.75 141.125 150.75H94.25C88.9766 150.75 84.875 146.648 84.875 141.375V94.5C84.875 89.5195 88.9766 85.125 94.25 85.125H141.125Z" fill="white"/>
</svg>
